<svg width="1920" height="1677" viewBox="0 0 1920 1677" fill="none" xmlns="http://www.w3.org/2000/svg">
<g opacity="0.2">
<path fill-rule="evenodd" clip-rule="evenodd" d="M789.914 66.3959L789.899 66.3452V66.4228L789.914 66.3959ZM789.914 66.3959C797.05 92.1362 806.897 118.806 819.146 145.63C843.428 198.616 870.813 255.791 905.336 325.534C913.637 342.368 924.42 360.134 939.16 381.545C992.301 458.735 1066.31 490.698 1159.02 476.656C1281.2 458.115 1400.98 416.533 1515.02 353.229C1521.36 349.738 1527.38 345.724 1533.72 341.487L1533.73 341.484C1534.29 341.108 1534.86 340.73 1535.43 340.351C1535.42 340.351 1535.43 340.332 1535.44 340.292L1535.44 340.29C1535.8 339.34 1540.4 327.01 1519.44 279.22C1483.76 197.995 1419.21 111.884 1401.29 106.686C1370.42 126.779 1339.85 148.733 1310.29 169.99L1308.2 171.541C1297.13 179.488 1286.23 187.614 1275.31 195.762L1272.82 197.618C1272.1 198.158 1271.37 198.697 1270.65 199.237L1270.6 199.277L1270.59 199.279L1270.59 199.282C1251.52 213.542 1231.84 228.265 1211.69 241.904C1199.36 250.283 1184.07 256.722 1163.59 262.23C1132.64 270.608 1108.75 257.498 1099.59 227.32C1093.77 207.848 1090.13 186.514 1088.73 163.706C1087.49 142.992 1084.62 56.8031 1084.7 47.3386C1084.85 27.6337 1085.01 7.30826 1084.46 -12.6293C1061.27 -20.3871 932.1 1.25717 842.342 36.4001C798.168 53.699 790.973 64.3864 789.914 66.3959ZM1641.09 733.517C1635.81 733.362 1630.46 733.362 1625.11 733.362L1625.18 733.285C1551.1 735.689 1486.55 741.508 1416.42 765.402C1368.71 781.616 1338.84 812.414 1330.15 854.384C1320.46 901.086 1349.78 931.031 1378.02 955.468C1378.75 956.077 1379.47 956.687 1380.19 957.293L1380.2 957.296C1381.77 958.62 1383.33 959.933 1384.92 961.209C1391.09 966.106 1397.35 970.909 1403.63 975.728L1403.63 975.728C1405.41 977.093 1407.19 978.458 1408.97 979.828C1426.74 993.404 1445.12 1007.52 1462.19 1022.34C1481.43 1039.1 1498.89 1056.55 1514.09 1074.47C1500.9 1107.06 1316.19 1234.28 1284.31 1232.5C1247.84 1189.99 1210.53 1143.13 1183.53 1088.2C1114.02 947.012 1106.65 829.792 1160.34 719.398C1174.45 690.461 1192.06 664.24 1211.46 643.682C1256.76 595.583 1313.86 558.423 1386.01 530.263C1466.15 498.921 1550.71 479.449 1637.6 460.675C1644.89 468.355 1658.93 509.394 1668.63 594.73C1677.01 668.196 1675.84 719.553 1671.73 733.44C1661.57 733.75 1651.17 733.672 1641.09 733.517ZM247.473 544.07C238.707 580.687 280.444 808.301 302.088 841.815C354.221 834.911 404.492 816.447 459.882 795.811C549.718 762.298 645.992 711.794 674.929 692.788C738 651.361 780.978 606.909 788.426 524.288C788.961 518.547 788.818 512.656 788.665 506.39L788.659 506.135C788.659 504.583 788.62 503.032 788.581 501.48C788.542 499.928 788.503 498.377 788.503 496.825V496.67C789.357 441.59 776.556 384.725 750.645 327.627C717.985 255.713 681.368 183.875 645.992 114.52L643.122 108.935C629.546 108.392 577.103 132.363 517.911 174.799C472.76 207.226 453.986 229.336 451.892 236.783C468.959 256.954 486.104 280.77 505.653 311.569C525.591 342.91 546.149 377.51 570.276 420.411C582.766 442.598 585.792 462.225 579.43 478.905C573.379 494.653 559.415 506.29 537.926 513.505C495.568 527.779 454.064 536.778 414.499 540.192C375.198 543.602 335.2 543.682 296.517 543.76L296.425 543.76C280.056 543.76 263.687 543.76 247.396 544.07H247.473ZM1066.24 1338.12C1065.61 1340.94 1064.98 1343.76 1064.45 1348.71H1064.53C1039.24 1365.55 844.282 1373.3 805.958 1364.85C807.277 1350.57 809.294 1335.83 813.716 1322.18C819.224 1305.34 825.663 1288.28 831.947 1271.83C839.239 1252.67 846.687 1232.96 852.893 1212.95C863.133 1179.9 868.796 1152.59 870.891 1127.07C874.072 1087.82 855.608 1054.77 816.121 1028.78C785.633 1008.69 751.731 1010.78 718.14 1034.83C689.901 1055 661.818 1077.34 634.588 1101.31C618.141 1115.74 602.083 1131.1 586.645 1146C572.913 1159.27 558.717 1172.92 544.287 1185.8C534.435 1183.78 500.999 1160.97 445.84 1104.57C398.595 1056.24 369.969 1018.38 364.539 1005.82C381.916 988.36 399.294 971.759 418.455 958.881C505.033 900.93 599.6 859.736 699.676 836.462C856.772 800.001 991.37 879.674 1034.66 1034.83C1055.37 1109.15 1066.39 1190.06 1069.26 1289.29C1069.26 1324.72 1067.76 1331.4 1066.24 1338.12Z" fill="url(#paint0_radial_160_409)"/>
</g>
<defs>
<radialGradient id="paint0_radial_160_409" cx="0" cy="0" r="1" gradientUnits="userSpaceOnUse" gradientTransform="translate(980.994 652.09) rotate(-133.133) scale(638.069 831.809)">
<stop/>
<stop offset="0.8" stop-color="#C92D2E"/>
</radialGradient>
</defs>
</svg>
