<svg width="1917" height="995" viewBox="0 0 1917 995" fill="none" xmlns="http://www.w3.org/2000/svg">
<g style="mix-blend-mode:overlay" opacity="0.3" clip-path="url(#clip0_165_101)">
<path d="M707.402 -22.2457L679.347 210.853L680.73 211.635L756.988 -338.809L777.827 -516.987L729.925 -175.309L763.423 -463.569L707.402 -22.2457Z" fill="black"/>
<path d="M884.065 104.319L873.511 123.749L815.264 228.568L1018.6 -116.117L808.92 245.472L954.941 2.17685L979.478 -39.39L919.187 58.0303L1162.34 -361.457L989.492 -71.0613L1208.37 -456.441L884.065 104.319Z" fill="black"/>
<path d="M1114.52 -209.657L956.505 41.4879L1107.67 -185.746L996.618 -11.8391L1113.44 -191.19L1242.44 -395.505L1142.25 -247.404L1114.52 -209.657Z" fill="black"/>
<path d="M823.444 72.2868L835.562 40.4951L759.785 232.629L957.226 -247.104L775.031 203.333L956.144 -225.177L821.519 101.763L847.199 47.1722L811.175 135.99L977.915 -238.472L1043.32 -387.956L933.11 -143.758L1018.66 -349.126L994.243 -300.732L888.937 -59.7825L1038.12 -422.665L888.365 -70.5502L1083.28 -552.719L857.994 -8.20001L823.444 72.2868Z" fill="black"/>
<path d="M831.262 147.42L1056.7 -295.167L999.896 -174.738L941.47 -53.7971L856.1 116.29L762.1 299.19L871.706 95.8975L993.251 -125.682L1015.41 -167.309L1195.86 -511.904L1167.93 -468.172L1052.61 -256.879L1038.54 -236.757L966.548 -103.785L1151.48 -471.961L1180.5 -538.402L1084.75 -357.036L845.004 119.087L831.262 147.42Z" fill="black"/>
<path d="M891.342 83.4158L922.796 31.713L931.997 15.0803L1044.25 -189.295L1097.41 -290.986L1107.1 -315.589L1164.38 -427.597L1002.93 -134.103L884.095 87.0853L798.185 246.375L891.342 83.4158Z" fill="black"/>
<path d="M1093.57 -144.299L1141.05 -208.003L789.855 313.025L933.742 105.522L856.461 216.658L1139.12 -201.115L1276.69 -410.483L1288.45 -435.417L1116.78 -181.926L1093.57 -144.299Z" fill="black"/>
<path d="M1306.76 -348.223L1067.43 -36.2317L1093.57 -75.6028L1179.75 -196.664L979.839 72.257L963.451 97.4016L838.389 268.271L1107.97 -85.6186L871.165 230.223L1193.85 -185.866L1035.65 22.9603L1353.64 -389.249L1117.47 -88.6564L1119 -95.3636L1306.76 -348.223Z" fill="black"/>
<path d="M1176.29 -334.207L1034.45 -110.462L1032.73 -107.815L1034.48 -110.161L940.808 47.1129L1030.84 -93.2277L1090.56 -189.956L1176.29 -334.207Z" fill="black"/>
<path d="M1065.33 -589.142L948.897 -291.918L813.19 63.8356L915.038 -218.289L953.678 -332.974L854.175 -61.8874L850.747 -51.9619L823.323 30.6002L761.108 204.417L952.114 -297.031L867.496 -64.9252L828.495 43.5635L893.357 -115.214L907.46 -146.886L1015.92 -427.687L868.128 -57.5562L932.027 -230.26L1065.33 -589.142Z" fill="black"/>
<path d="M1110.1 -204.123L1100.99 -194.919L920.06 87.1155L844.403 208.928L1110.1 -204.123Z" fill="black"/>
<path d="M938.613 -430.455L903.04 -327.079L787.299 45.9091L725.806 250.314L711.282 301.175L840.403 -101.379L872.759 -198.078L967.27 -496.234L768.656 120.892L938.613 -430.455Z" fill="black"/>
<path d="M684.459 789.149L755.966 1187.73L820.887 1530.82L704.095 889.787L769.588 1224.7L808.649 1411.33L755.274 1127.16L735.097 1019.57L725.324 976.801L797.944 1359.53L685.601 789.179L684.459 789.149Z" fill="black"/>
<path d="M726.677 130.336L696.427 273.744L751.155 38.3897L751.546 46.6008L735.187 125.373L757.469 40.9162L763.153 20.0426L840.644 -304.431L863.527 -414.333L869.481 -455.269L890.651 -563.968L843.861 -375.263L714.258 193.137L726.677 130.336Z" fill="black"/>
<path d="M730.316 -95.9647L734.345 -107.845L743.908 -151.126L754.101 -195.791L702.952 138.217L726.286 9.78693L699.885 176.956L768.746 -203.431L709.387 142.548L705.568 172.776L723.309 88.2585L705.598 189.649L755.906 -58.0072L825.518 -421.882L790.667 -258.803L782.728 -232.395L783.6 -252.697L794.215 -327.68L829.969 -548.086L713.477 101.523L739.036 -58.9095L757.529 -183.79L742.975 -110.312L803.026 -504.775L771.242 -324.041L760.506 -273.992L801.793 -574.644L730.316 -95.9647Z" fill="black"/>
<path d="M759.123 -59.4514L751.395 -25.2234L727.94 95.7774L690.052 286.828L696.336 262.857L731.639 106.635L791.84 -180.723L767.242 -76.8661L843.741 -457.795L759.123 -59.4514Z" fill="black"/>
<path d="M763.634 44.1046L765.197 38.5103L889.478 -459.569L889.929 -476.713L770.58 -0.0488281L749.11 92.7396L763.634 44.1046Z" fill="black"/>
<path d="M1069.36 89.7621L950.34 214.613L948.626 216.688L1055.41 105.613L1069.36 89.7621Z" fill="black"/>
<path d="M799.899 75.6857L887.493 -165.233L944.266 -326.478L976.11 -427.056L901.386 -221.628L799.899 75.6857Z" fill="black"/>
<path d="M805.161 -93.2281L766.28 60.0757L720.002 236.78L828.766 -147.578L816.979 -98.8827L856.16 -244.096L941.349 -563.937L865.963 -302.476L896.454 -428.259L805.161 -93.2281Z" fill="black"/>
<path d="M882.532 129.073L1012.44 -80.3851L1214.81 -419.296L896.003 106.214L882.532 129.073Z" fill="black"/>
<path d="M831.683 983.749L971.66 1300.73L972.592 1295.44L935.756 1211.49L796.591 901.668L831.683 983.749Z" fill="black"/>
<path d="M803.026 860.913L832.284 919.023L830.931 915.955L885.268 1017.38L1009.91 1251.29L1085.39 1387.96L949.799 1126.13L1028.55 1267.62L1010.3 1233.36L813.972 871.32L920.631 1077.38L787.69 828.039L803.026 860.913Z" fill="black"/>
<path d="M891.463 -28.2312L1011.2 -284.52L809.972 161.586L817.58 149.586L997.881 -229.268L1025.58 -290.325L1004.38 -252.578L928.93 -96.4465L1079.94 -433.101L928.299 -107.184L1015.95 -309.093L771.272 234.524L755.906 269.684L891.463 -28.2312Z" fill="black"/>
<path d="M1012.59 12.1925L1037.15 -21.1632L1198.99 -251.946L1070.41 -76.1745L943.274 102.304L823.805 273.444L1012.59 12.1925Z" fill="black"/>
<path d="M1228.67 -168.301L1076.73 9.00473L1196.74 -140.058L1088.24 -12.8314L1006.72 83.1753L1112.36 -50.7888L1237.72 -211.281L990.093 93.943L893.447 212.808L1040.76 22.7801L937.5 153.195L924.089 171.061L806.213 323.282L943.905 152.804L842.899 281.595L1004.14 85.6416L921.804 190.01L794.937 346.381L894.47 228.9L1114.25 -29.1332L838.088 300.724L996.348 117.072L1407.95 -368.766L1274.14 -216.966L1228.67 -168.301Z" fill="black"/>
<path d="M1202.42 -98.9425L1316.03 -232.335L1010.93 110.696L893.628 245.984L923.969 214.403L1030.27 98.6953L1018.9 115.148L1212.04 -93.2278L1187.96 -69.3765L1420.04 -331.169L1328.84 -235.584L1202.42 -98.9425Z" fill="black"/>
<path d="M1055.65 1169.54L1057.18 1172.03L1150.88 1312.1L966.999 1031.57L1079.76 1194.8L1073.78 1185.54L860.701 872.583L1055.65 1169.54Z" fill="black"/>
<path d="M827.774 813.661L813.851 792.878L1167.51 1295.14L907.28 921.188L1028.88 1089.05L956.174 985.222L806.785 778.08L875.225 877.846L785.405 751.943L827.774 813.661Z" fill="black"/>
<path d="M836.615 118.395L912.121 -36.2919L981.583 -183.219L945.559 -113.982L962.098 -150.435L836.615 118.395Z" fill="black"/>
<path d="M1046.44 1143.16L1016.22 1096.36L917.774 948.438L901.446 923.925L805.341 785.209L1046.44 1143.16Z" fill="black"/>
<path d="M1129.86 -176.392L1038.96 -45.7363L852.762 226.884L921.834 129.434L1182 -245.81L1129.86 -176.392Z" fill="black"/>
<path d="M938.493 1201.45L822.181 950.032L840.464 991.689L948.957 1228.73L938.493 1201.45Z" fill="black"/>
<path d="M871.556 1036.5L759.935 802.353L787.059 862.778L816.618 924.857L1090.44 1504.36L871.556 1036.5Z" fill="black"/>
<path d="M1103.82 1462.76L895.853 1048.36L834.449 930.272L827.323 917.91L1103.82 1462.76Z" fill="black"/>
<path d="M989.913 49.9702L837.065 262.526L888.906 193.018L1239.47 -289.722L989.913 49.9702Z" fill="black"/>
<path d="M308.701 -336.223L329.99 -270.774L396.265 -89.589L434.394 14.9897L442.363 34.991L425.945 -14.5461L373.081 -162.045L544.482 288.903L354.467 -231.764L423.87 -50.8494L378.975 -181.535L331.163 -313.424L271.323 -468.563L356.873 -224.696L256.739 -485.677L308.701 -336.223Z" fill="black"/>
<path d="M356.783 -107.815L360.301 -98.7919L372.63 -72.1435L501.601 221.2L505.39 228.118L237.855 -390.421L356.783 -107.815Z" fill="black"/>
<path d="M521.448 204.958L507.375 159.09L497.933 125.644L459.743 4.76367L395.243 -197.837L343.161 -349.697L388.357 -204.183L420.532 -100.537L390.492 -180.633L398.761 -148.51L278.961 -481.736L375.336 -205.537L521.448 204.958Z" fill="black"/>
<path d="M443.054 120.501L367.758 -45.0145L242.245 -312.131L447.625 131.389L443.054 120.501Z" fill="black"/>
<path d="M716.033 -167.369L705.959 -82.9117L669.724 257.082L725.775 -206.74L729.143 -231.163L762.551 -517.979L712.244 -111.756L716.033 -167.369Z" fill="black"/>
<path d="M445.551 -58.97L464.164 -5.7934L516.065 151.691L452.828 -56.7142L483.65 45.368L314.053 -486.849L350.077 -361.126L445.551 -58.97Z" fill="black"/>
<path d="M403.993 -442.485L538.678 129.494L536.152 113.583L512.637 3.83112L559.848 200.567L552.631 161.256L517.148 -4.16943L491.738 -113.861L392.567 -542.553L514.411 6.35767L380.959 -557.14L403.993 -442.485Z" fill="black"/>
<path d="M470.419 -16.1702L487.859 38.5403L363.098 -394.542L339.643 -468.472L463.502 -41.2848L470.419 -16.1702Z" fill="black"/>
<path d="M458.42 -132.569L468.855 -95.7245L472.553 -92.9274L473.696 -100.086L509.871 32.3145L523.402 77.7913L531.191 105.883L508.337 14.2982L382.613 -483.421L415.961 -335.861L460.195 -150.224L377.622 -457.524L428.47 -250.412L458.42 -132.569Z" fill="black"/>
<path d="M340.064 -25.9447L456.376 197.229L454.932 195.033L475.109 232.329L512.727 300.514L200.898 -300.64L284.133 -146.855L128.008 -444.5L171.64 -352.584L340.064 -25.9447Z" fill="black"/>
<path d="M305.333 10.478L387.996 138.968L225.225 -127.426L420.111 183.332L318.473 12.6736L142.021 -285.362L121.182 -317.515L47.1492 -432.139L119.739 -306.145L59.6284 -396.467L160.244 -227.794L-3.03809 -481.315L305.333 10.478Z" fill="black"/>
<path d="M251.687 -158.736L457.248 209.259L498.654 281.956L437.431 167.662L435.717 164.895L96.1035 -453.072L168.032 -314.266L251.687 -158.736Z" fill="black"/>
<path d="M284.103 -98.4618L286.208 -94.5818L110.597 -402.362L415.3 143.6L508.247 306.92L284.103 -98.4618Z" fill="black"/>
<path d="M234.156 -69.7677L387.064 162.158L497.091 325.778L243.448 -62.1281L185.533 -156.871L202.402 -134.674L101.937 -287.828L-10.3752 -453.042L174.828 -164.481L234.156 -69.7677Z" fill="black"/>
<path d="M503.796 53.3983L452.677 -140.51L444.678 -168.391L427.628 -220.335L458.571 -99.1235L469.817 -54.7595L513.659 96.9502L503.796 53.3983Z" fill="black"/>
<path d="M320.608 -16.2003L263.776 -119.486L112.101 -384.136L204.417 -215.974L393.018 115.508L312.79 -18.2155L295.47 -43.0594L351.31 52.5864L356.362 60.9178L405.527 140.262L467.442 243.276L320.608 -16.2003Z" fill="black"/>
<path d="M450.662 117.764L342.62 -131.967L174.346 -506.82L149.448 -552.327L295.74 -222.981L450.662 117.764Z" fill="black"/>
<path d="M178.106 -405.219L294.267 -163.037L306.476 -141.081L514.382 282.377L375.938 -10.8463L461.368 164.083L460.315 161.617L238.517 -304.25L128.309 -526.822L261.28 -241.689L178.106 -405.219Z" fill="black"/>
<path d="M274.3 -182.798L296.492 -146.224L276.496 -193.506L158.53 -427.718L180.331 -375.564L270.211 -189.566L197.651 -325.425L340.245 -41.5254L396.386 64.5571L274.3 -182.798Z" fill="black"/>
<path d="M207.484 -501.918L385.5 -65.2867L248.049 -385.008L505.932 229.08L508.878 234.493L456.917 106.605L339.312 -183.4L504.669 212.718L292.162 -318.778L373.863 -124.449L339.553 -215.132L340.966 -209.357L220.414 -502.339L330.441 -219.944L257.34 -390.843L207.484 -501.918Z" fill="black"/>
<path d="M370.375 -45.2847L434.906 92.8301L388.146 -12.2899L289.967 -223.793L370.375 -45.2847Z" fill="black"/>
<path d="M659.621 113.583L664.101 67.5648L671.769 -49.7065L693.901 -452.652L681.422 -285.302L663.409 24.043L659.621 113.583Z" fill="black"/>
<path d="M649.367 141.616L649.848 178.881L653.607 95.447L653.787 77.5209L659.951 -168.601L666.958 -506.971L657.245 -208.544L649.367 141.616Z" fill="black"/>
<path d="M646.42 5.78656L652.735 -176.722L652.885 -180.362L653.156 -208.755L657.726 -619.76L647.021 -89.1974L646.42 5.78656Z" fill="black"/>
<path d="M692.457 -203.251L692.487 -161.654L673.453 102.755L729.504 -633.897L710.59 -437.372L684.218 -105.44L692.457 -203.251Z" fill="black"/>
<path d="M688.007 37.3374L675.137 181.287L690.954 41.7286L689.691 37.6381L757.078 -655.402L709.778 -206.499L688.007 37.3374Z" fill="black"/>
<path d="M673.754 18.5395L677.452 -25.2229L677.543 -44.5024L673.754 18.5395Z" fill="black"/>
<path d="M664.131 812.549L675.618 941.31L672.491 896.856L679.166 959.086L664.131 812.549Z" fill="black"/>
<path d="M725.595 -488.985L673.393 103.538L671.739 126.607L662.026 259.007L674.054 130.878L725.595 -488.985Z" fill="black"/>
<path d="M417.164 -484.834L469.336 -237.719L486.175 -166.376L454.481 -333.666L555.668 142.397L575.123 230.794L585.888 278.828L590.309 295.882L564.418 155.361L565.621 162.339L566.102 172.234L516.276 -75.8734L566.643 188.446L414.969 -552.297L421.464 -501.106L414.728 -514.58L417.164 -484.834Z" fill="black"/>
<path d="M549.172 -274.203L555.938 -201.927L589.406 92.6797L549.172 -274.203Z" fill="black"/>
<path d="M522.62 -395.354L563.125 -44.7738L531.732 -271.857L560.389 -33.2843L565.501 12.1926L589.407 181.588L590.76 179.633L563.155 -58.5192L564.659 -68.2341L567.305 -68.7755L558.133 -162.195L501.812 -636.755L546.917 -218.199L522.62 -395.354Z" fill="black"/>
<path d="M548.3 1.33466L557.893 56.8874L531.01 -126.343L586.67 215.665L545.714 -67.8732L545.895 -67.031L464.194 -601.504L473.756 -512.535L478.868 -455.72L461.938 -537.56L548.3 1.33466Z" fill="black"/>
<path d="M602.006 -140.48L617.763 144.232L610.486 -58.3088L597.014 -318.868L599.661 -203.071L602.006 -140.48Z" fill="black"/>
<path d="M605.494 -259.164L610.155 -112.989L610.726 -126.253L612.711 -153.142L625.942 182.52L624.018 100.47L599.33 -632.814L600.262 -488.143L605.494 -259.164Z" fill="black"/>
<path d="M627.506 108.651L626.724 -45.9462L626.123 -291.046L632.317 4.10242L633.069 -182.467L629.039 -577.081L629.099 -195.611L620.98 -584.299L621.552 -323.469L613.403 -561.771L607.329 -649.176L615.387 -297.001L627.506 108.651Z" fill="black"/>
<path d="M580.295 -177.053L568.297 -292.159L572.327 -209.958L570.913 -205.145L575.273 -163.007L605.314 162.76L593.887 -4.34937L597.706 14.5692L607.509 122.156L586.76 -222.199L564.959 -519.603L589.256 -123.937L557.141 -521.979L580.295 -177.053Z" fill="black"/>
<path d="M637.038 162.79L639.293 -148.059L637.038 -578.524L635.354 -43.0588L637.038 162.79Z" fill="black"/>
<path d="M605.765 -39.4197L605.885 -36.2014L611.448 98.6049L613.403 140.773L619.898 243.878L605.765 -39.4197Z" fill="black"/>
<path d="M1003.93 803.405L950.43 765.719L1011.35 811.496L1303.97 1023.36L1003.93 803.405Z" fill="black"/>
<path d="M964.774 269.354L940.507 291.491L858.505 359.766L1008.89 241.292L1121.92 152.985L1220.37 73.5208L1199.23 87.0555L1089.57 172.415L1067.34 187.814L978.486 258.105L996.889 242.254L964.774 269.354Z" fill="black"/>
<path d="M1145.98 171.933L1062.68 233.712L1080.3 221.35L1533.7 -105.259L1145.98 171.933Z" fill="black"/>
<path d="M1349.94 -77.2271L1284.18 -20.7419L1249.54 9.9068L1349.94 -77.2271Z" fill="black"/>
<path d="M1123.42 164.354L872.278 358.743L898.078 339.313L1102.5 180.926L1123.42 164.354Z" fill="black"/>
<path d="M1101.83 191.062L902.318 341.298L1152.26 159.21L1029.94 251.878L1092.36 207.695L1304.6 51.9248L1347 17.0954L1423.35 -43.2998L1111.58 184.686L1101.83 191.062Z" fill="black"/>
<path d="M1036.16 931.805L1111.94 1008.74L1200.83 1095.76L901.446 797.51L1213.64 1100.3L1177.22 1062.1L824.105 720.783L1036.16 931.805Z" fill="black"/>
<path d="M947.063 904.135L942.853 901.397L960.203 922.361L1152.56 1148.93L947.063 904.135Z" fill="black"/>
<path d="M915.88 856.702L1035.77 990.365L921.563 859.529L996.558 946.573L812.318 739.01L872.849 810.834L1020.7 985.764L1004.83 967.988L1040.13 1008.8L1231.38 1227.07L1296.63 1297.18L915.88 856.702Z" fill="black"/>
<path d="M1281.26 33.006L1284.96 30.299L1386.84 -50.3381L1279.88 33.006H1281.26Z" fill="black"/>
<path d="M1160.38 79.7766L1251.52 -3.9585L1042.69 177.648L1043.14 176.716L1029.4 189.468L1047.29 176.776L1040.94 185.197L1160.38 79.7766Z" fill="black"/>
<path d="M929.381 866.387L1151.18 1112.9L1096.33 1050.46L1085.87 1039.09L929.381 866.387Z" fill="black"/>
<path d="M1091.55 236.63L1010.9 292.543L1328.44 87.4463L1434.29 16.6445L1393.55 39.4129L1204.34 161.316L982.125 307.281L1518.31 -56.6238L1075.7 241.141L1086.44 234.284L849.875 395.738L1091.55 236.63Z" fill="black"/>
<path d="M1525.4 203.785L1379.05 258.375L1221.33 318.71L1525.4 203.785Z" fill="black"/>
<path d="M982.335 377.15L1003.35 367.586L1623.88 74.6031L1072.12 332.606L1049.09 343.795L982.335 377.15Z" fill="black"/>
<path d="M1176.08 297.687L1033.3 360.638L1247.92 261.895L1253.66 257.654L865.271 435.32L1176.08 297.687Z" fill="black"/>
<path d="M1239.83 377.992L1143.78 405.363L1172.11 398.626L1546.48 300.483L1239.83 377.992Z" fill="black"/>
<path d="M1001.13 920.105L1006.75 926.392L1120.84 1044.99L1305.53 1233.54L945.559 857.545L867.045 777.208L1001.13 920.105Z" fill="black"/>
<path d="M1738.03 267.489L1692.54 274.617L1421.18 341.389L1129.11 416.101L932.96 465.728L1022.24 445.306L1148.32 413.815L1738.03 267.489Z" fill="black"/>
<path d="M1254.02 229.501L1259.28 226.583L1135.36 286.437L1308.48 195.874L1439.34 125.493L1183.54 255.818L1210.81 242.434L1075.64 314.559L1001.43 354.411L1254.02 229.501Z" fill="black"/>
<path d="M1547.51 -20.802L1536.89 -18.7267L1257.48 152.323L1201.73 187.994L1132.05 234.253L1252.85 163.752L1260.39 158.669L1547.51 -20.802Z" fill="black"/>
<path d="M1019.92 330.08L1106.35 284.482L1077.3 299.702L1304.87 173.167L1461.05 83.8972L1099.61 281.595L1032.16 321.177L1019.92 330.08Z" fill="black"/>
<path d="M1106.34 293.686L1123.67 285.174L1495.97 88.499L992.92 350.382L974.577 359.194L927.126 385.452L1106.34 293.686Z" fill="black"/>
<path d="M1209.1 230.644L1132.15 272.752L1224.22 222.734L1209.1 230.644Z" fill="black"/>
<path d="M926.765 619.002L1082.44 664.599L938.914 625.258L911.58 618.641L1168.59 695.999L1702.97 853.063L956.114 631.093L1382.06 752.424L1455.28 770.29L1730.63 844.19L1732.08 840.34L1445.27 758.049L1740.71 834.144L1243.95 698.616L1688.93 812.158L1650.74 798.322L1344.62 717.053L1225.33 686.314L1107.7 658.493L1109.5 661.14L1245.12 699.338L1483.76 766.591L880.036 604.805L926.765 619.002Z" fill="black"/>
<path d="M1282.83 646.974L1021.61 604.685L1013.04 604.896L1234.56 646.011L1320.02 659.456L1690.73 721.144L1742.63 726.047L1282.83 646.974Z" fill="black"/>
<path d="M1287.49 505.761L1317.08 504.739L920.721 524.95L945.589 524.018L1840 481.699L1287.49 505.761Z" fill="black"/>
<path d="M1219.35 573.133L1189.85 569.735L1274.26 572.231L1273.87 572.081L958.038 556.35L1219.35 573.133Z" fill="black"/>
<path d="M1344.38 674.283L1599.83 719.7L1721.31 738.529L1308.81 660.719L1017.34 609.106L1031.62 613.588L1130.82 634.732L1191.77 647.906L1310.55 670.313L1344.38 674.283Z" fill="black"/>
<path d="M1327.36 530.213L1381.1 526.965L1287.43 527.025L1190 530.364L1166.52 533.01L1184.47 533.883L1202.72 533.582L1327.36 530.213Z" fill="black"/>
<path d="M1424.97 614.099L1121.65 587.12L931.216 569.314L936.177 571.148L1250.68 608.294L1506.34 640.988L1655.07 655.124L1242.59 605.707L1787.35 661.892L1702.37 648.898L1539.87 628.807L1687.84 639.755L1114.67 582.849L1596.61 624.024L1461.02 608.956L1268.57 590.218L1703.81 622.009L1479.1 603.271L1503.75 606.279L901.627 560.291L1158.73 583.871L882.802 560.922L1424.97 614.099Z" fill="black"/>
<path d="M1531.63 569.825L1524.11 569.224L1323.84 564.893L1353.16 566.788L1734.24 580.924L1531.63 569.825Z" fill="black"/>
<path d="M1488.6 566.457L1461.69 564.381L1410.81 560.592L1358.97 559.9L1488.6 566.457Z" fill="black"/>
<path d="M1551.17 547.538L1232.13 543.568L928.389 541.643L1612.79 554.757L1513.38 553.854L1674.13 556.261L1767.41 553.854L1551.17 547.538Z" fill="black"/>
<path d="M1281.62 520.649L1050.41 528.499L1147.36 527.446L1093.47 527.717L1543.6 514.904L1684.69 507.656L1193.07 519.536L1310.73 514.453L941.53 528.108L1281.62 520.649Z" fill="black"/>
<path d="M1508.9 559.81L1517.59 559.84L1469.53 558.457L1508.9 559.81Z" fill="black"/>
<path d="M1392.97 844.942L1343.54 826.054L1122.7 738.078L1651.85 953.16L1392.97 844.942Z" fill="black"/>
<path d="M1237.15 817.993L1248.7 825.904L1260.18 831.618L1348.5 871.621L1237.15 817.993Z" fill="black"/>
<path d="M901.927 667.967L1066.59 751.612L1175.12 808.759L959.151 701.534L1271.07 864.222H1271.01L1632.21 1049.5L1507.27 981.222L1223.08 833.513L1591.77 1015.72L1339.78 886.208L1073.15 751.793L1604.67 1009.16L1455.19 932.617L1540.02 969.612L1405.3 904.104L1231.89 824.399L912.181 671.547L901.927 667.967Z" fill="black"/>
<path d="M1157.16 778.922L1179.99 787.645L1250.8 818.353L1058.65 731.701L1157.16 778.922Z" fill="black"/>
<path d="M1250.14 365.781L1323.36 343.284L1098.47 408.491L961.316 448.313L931.486 457.878L1262.26 371.586L1245.75 376.308L1506.88 304.093L1323.87 350.472L1746.75 231.216L1250.14 365.781Z" fill="black"/>
<path d="M1169.79 1054.31L1163.45 1047.66L1260.09 1136.96L1406.36 1272.4L1158.19 1034.4L1154.13 1030.67L826.932 720.272L1169.79 1054.31Z" fill="black"/>
<path d="M988.469 670.344L1156.44 735.401L1224.61 761.057L1016.98 680.51L1143.33 725.987L1459.04 840.13L1252.64 761.658L1120.81 711.941L977.343 661.05L1003.56 672.389L869.812 624.386L988.469 670.344Z" fill="black"/>
<path d="M1364.23 767.252L1216.73 718.467L1052.7 666.253L1212.91 718.257L1115.97 690.195L1151.69 702.827L1322.58 756.846L1364.23 767.252Z" fill="black"/>
<path d="M1105.65 681.322L1470.44 790.893L1236.43 719.339L1201.25 709.173L1105.65 681.322Z" fill="black"/>
<path d="M1379.32 833.062L1389.61 837.483L1428.76 851.83L1533.4 889.637L1281.38 789.81L1246.89 777.238L1379.32 833.062Z" fill="black"/>
<path d="M1419.83 458.329L1290.1 474.27L1503 457.547L1744.47 434.207L1469.08 456.705L1481.23 452.464L1464.99 451.08L1800.25 412.16L1350.55 457.727L1450.62 445.245L1219.65 473.247L950.069 504.107L1419.83 458.329Z" fill="black"/>
<path d="M1086.29 470.781L1066.17 473.548L1325.02 432.883L1356.89 426.417L977.043 486.06L1086.29 470.781Z" fill="black"/>
<path d="M1276.18 -112.958L934.974 233.111L934.794 233.351L910.046 261.083L907.7 265.865L927.216 247.397L978.636 194.913L1147.06 22.209L1276.18 -112.958Z" fill="black"/>
<path d="M1460.57 421.484L1281.71 444.163L1227.17 451.592L1025.61 482.301L1351 439.771L1118.22 473.578L1187.11 465.487L1464.75 426.958L1625.51 402.024L1460.57 421.484Z" fill="black"/>
<path d="M948.626 518.153L976.862 517.972L1149.47 510.483L1196.22 508.889L1730.96 478.872L1516.44 487.113L1306.04 496.618L1507.24 481.338L1020.7 511.416L917.985 518.785L948.626 518.153Z" fill="black"/>
<path d="M1258.02 491.895L1417.9 481.879L1734.81 458.9L1258.02 491.895Z" fill="black"/>
<path d="M1538.55 377.632L1169.58 445.246L1135.57 453.367L1383.5 415.169L938.342 489.159L1371.87 423.41L1377.85 422.176L989.823 480.887L1596.46 381.301L1244.97 436.012L1232.97 435.801L1704.26 351.976L1819.04 327.734L1511.27 381.271L1538.55 377.632Z" fill="black"/>
<path d="M1162.58 847.529L920.571 706.226L912.903 703.308L1117.92 828.881L1316.11 947.626L1367.54 975.146L1455.25 1023.78L1162.82 847.198L1144.95 834.204L1039.26 770.862L876.157 676.87L1162.58 847.529Z" fill="black"/>
<path d="M1449.06 667.276L1154.46 619.603L1033.24 601.316L1064.22 608.174L1151.06 623.363L1714.16 713.234L1449.06 667.276Z" fill="black"/>
<path d="M1432.16 442.899L1241.33 464.645L1219.65 468.044L1546.75 433.274L1602.14 426.357L1432.16 442.899Z" fill="black"/>
<path d="M1192.44 612.776L1183.81 612.896L1030.84 593.857L1020.25 594.068L1341.92 643.936L1432.58 659.215L1595.08 683.337L1676.36 691.789L1653.68 684.721L1460.66 653.952L1703.24 683.999L1192.44 612.776Z" fill="black"/>
<path d="M1255.28 352.336L1081.75 402.535L1110.25 392.039L1386.99 304.062L1289.35 334.17L1060.46 406.987L891.403 460.314L1264.97 349.539L1255.28 352.336Z" fill="black"/>
<path d="M1223.59 246.404L957.136 380.278L1342.04 194.19L1128 301.295L1284.06 229.17L1514.82 118.125L1628.4 59.3537L1711.6 14.3882L1661.32 34.3294L1211.71 252.991L1223.59 246.404Z" fill="black"/>
<path d="M1026.48 446.298L1005.34 451.682L1132.66 424.402L918.917 474.33L1180.35 418.597L1050.44 448.824L1435.55 370.293L1490.19 362.803L1445.57 375.616L1265.42 414.446L1099.34 448.945L1169.37 436.252L1371.38 395.979L1805.27 308.394L1787.26 307.612L1817.87 297.085L1704.2 316.154L1429.3 370.052L1506.61 350.502L1479.16 353.209L1741.1 291.911L1616.73 315.793L1809.21 267.91L1026.48 446.298Z" fill="black"/>
<path d="M1272.63 -51.6316L1265.63 -45.4958L872.338 321.417L990.484 215.575L1019.71 189.558L1478.77 -231.644L1101.02 110.665L1272.63 -51.6316Z" fill="black"/>
<path d="M1344.08 -59L920.33 297.386L917.654 301.717L1174.18 89.642L1114.37 142.909L1534.91 -209.206L1034.81 204.657L1344.08 -59Z" fill="black"/>
<path d="M945.228 205.53L1165.88 -27.3586L1393.1 -271.616L1281.44 -157.142L1343.54 -229.568L1230.41 -111.425L1216.19 -97.3484L870.895 283.37L945.228 205.53Z" fill="black"/>
<path d="M1142.88 44.4958L1154.97 29.0662L1016.16 163.902L1096.51 88.2582L1037.12 149.796L833.156 349.269L880.096 306.198L1287.85 -76.8961L954.58 240.539L1262.95 -43.1794L1205.13 7.19997L1416.19 -195.25L1400.1 -185.264L1419.62 -209.116L1450.32 -244.005L1183.69 8.52338L1142.88 44.4958Z" fill="black"/>
<path d="M1370.96 27.5325L1339.36 50.2408L1548.83 -96.4761L1314.07 66.3923L1370.96 27.5325Z" fill="black"/>
<path d="M1443.91 263.428L1447.58 263.999L1447.04 266.736L1749.43 164.714L1612.85 206.582L1443.91 263.428Z" fill="black"/>
<path d="M1215.65 188.776L1252.76 163.812L1034.18 299.16L954.791 348.877L1173.25 220.748L1589.3 -27.7802L1368.86 99.7475L1215.65 188.776Z" fill="black"/>
<path d="M1309.71 228.087L1380.77 197.318L1725.61 36.3448L1088.57 328.786L1309.71 228.087Z" fill="black"/>
<path d="M1078.17 789.118L1039.62 767.764L1237.78 883.862L1573.94 1076.33L1078.17 789.118Z" fill="black"/>
<path d="M1365.64 115.779L1497.2 35.3224L1067.64 285.295L912.061 377.632L1227.74 196.567L990.935 335.674L922.976 376.248L1373.64 125.043L1223.23 210.944L1634.44 -21.1627L1462.2 71.5956L1344.68 134.698L1650.56 -44.6531L1365.64 115.779Z" fill="black"/>
<path d="M1225.33 940.618L1204.76 925.88L1097.68 854.898L1155.45 896.525L1452.84 1101.11L1225.33 940.618Z" fill="black"/>
<path d="M1418.87 250.073L1468.75 232.027L1500.45 220.237L1418.87 250.073Z" fill="black"/>
<path d="M1184.8 325.117L1221.27 308.514L1530.79 183.272L1332.5 259.067L1438.47 213.229L1158.67 324.425L1089.2 352.096L1099.46 349.148L999.355 391.858L1372.74 245.111L1003.75 393.813L1027.35 386.504L1280.45 291.49L1689.32 133.464L1184.8 325.117Z" fill="black"/>
<path d="M1154.07 857.274L1154.97 857.815L1198.21 881.817L1066.14 799.435L929.892 717.053L1154.07 857.274Z" fill="black"/>
<path d="M1051.44 806.202L926.705 723.67L1310.82 967.928L1304.09 963.597L858.175 679.758L1054.26 808.157L1051.44 806.202Z" fill="black"/>
<path d="M1287.97 130.036L1372.38 75.8064L1355.78 82.6339L1163.9 202.011L909.415 366.052L1287.97 130.036Z" fill="black"/>
<path d="M1401.85 198.1L1016.92 371.074L1125.47 325.898L876.548 435.259L1086.47 347.434L1575.68 137.795L1436.28 193.859L1650.02 97.4615L1659.73 88.8594L1694.19 69.1588L1401.85 198.1Z" fill="black"/>
<path d="M1297.23 321.086L1291.49 323.102L1340.38 307.882L1405.88 285.986L1297.23 321.086Z" fill="black"/>
<path d="M1504.84 281.294L1570.96 261.503L1502.49 281.204L1504.84 281.294Z" fill="black"/>
<path d="M1520.11 1166.53L943.274 753.718L876.848 707.218L906.137 729.776L1012.5 807.887L1559.41 1199.58L1520.11 1166.53Z" fill="black"/>
<path d="M1643.4 117.463L1438.86 202.582L1205.46 301.596L1643.4 117.463Z" fill="black"/>
<path d="M1024.7 403.979L1017.04 405.663L1212.97 335.283L1214.57 334.681L878.172 453.877L1024.7 403.979Z" fill="black"/>
<path d="M929.953 431.56L1088.21 376.429L1258.29 317.447L1273.78 311.372L1295.88 300.845L1049.9 387.617L1351.06 275.73L929.953 431.56Z" fill="black"/>
<path d="M1245.42 1058.97L1368.02 1159.58L1165.1 985.974L1145.26 969.522L1239.68 1054.43L1040.55 886.659L1036.55 883.742L1408.55 1203.7L1245.42 1058.97Z" fill="black"/>
<path d="M951.212 777.088L873.721 719.55L1012.89 829.453L948.717 781.75L878.984 728.754L1112.96 917.459L1120.6 924.046L1400.43 1145.75L913.895 756.185L1120.42 916.857L1293.41 1048.96L947.183 777.118L1424.64 1142.26L951.092 776.938L951.212 777.088Z" fill="black"/>
<path d="M1253.57 1038.22L1362.69 1124.24L1187.23 981.312L1253.57 1038.22Z" fill="black"/>
<path d="M1390.42 322.77L1509.38 286.497L1201.01 373.721L1132.09 394.384L1390.42 322.77Z" fill="black"/>
<path d="M1260.49 1046.67L1255.73 1045.05L1118.43 935.896L1198.3 1005.28L1270.95 1065.26L1315.84 1098.52L1390.27 1155.55L1260.49 1046.67Z" fill="black"/>
<path d="M1008.74 781.63L1058.95 815.316L1108.57 845.965L1008.74 781.63Z" fill="black"/>
<path d="M1132.36 864.613L1345.73 1007.84L1077.03 832.129L1112.93 856.763L1223.98 930.452L1548.95 1143.64L1132.36 864.613Z" fill="black"/>
<path d="M952.415 736.905L1182.75 880.494L1149.32 859.139L929.892 722.438L952.415 736.905Z" fill="black"/>
<path d="M189.622 111.839L206.161 126.938L137.991 60.3164L-157.299 -220.876L189.622 111.839Z" fill="black"/>
<path d="M352.693 1167.34L402.129 1063.03L204.387 1513.77L385.921 1106.92L449.7 959.597L442.002 971.748L280.374 1321.46L425.463 997.645L434.485 973.011L492.971 844.1L463.111 903.202L332.636 1169.54L308.039 1217.72L164.062 1517.77L250.695 1345.88L212.205 1434.55L415.991 1009.28L268.857 1329.73L141.72 1613.03L188.84 1520.06L352.693 1167.34Z" fill="black"/>
<path d="M294.026 1421.01L280.675 1465.29L389.259 1185.42L330.742 1328.01L433.793 1055.48L396.235 1143.25L499.677 878.96L363.338 1208.97L288.764 1397.7L302.085 1373.46L211.573 1610.29L341.868 1289.91L294.026 1421.01Z" fill="black"/>
<path d="M363.939 1055.03L440.107 908.586L451.745 884.614L231.871 1299.05L363.939 1055.03Z" fill="black"/>
<path d="M393.559 1121.02L371.066 1181.3L387.966 1146.62L374.615 1180.39L511.224 842.566L500.609 864.252L498.835 864.402L454.271 964.379L434.364 1009.4L166.648 1641.45L243.839 1469.77L393.559 1121.02Z" fill="black"/>
<path d="M233.555 1109.29L318.624 992.472L170.107 1209.18L180.751 1193.96L441.341 817.121L439.506 817.091L454.181 793.992L143.705 1221.33L428.561 824.43L289.666 1010.88L306.054 989.313L226.759 1101.53L93.5476 1289.94L-11.5781 1442.04L381.801 896.916L233.555 1109.29Z" fill="black"/>
<path d="M133.481 1526.04L285.186 1229.87L281.036 1236.7L437.041 926.632L420.261 954.664L338.049 1108.15L312.038 1159.4L408.113 979.869L362.677 1072.03L133.481 1526.04Z" fill="black"/>
<path d="M402.85 1192.33L525.056 846.747L462.54 1012.68L428.982 1101.26L252.679 1582.83L441.551 1075.3L298.687 1478.64L402.85 1192.33Z" fill="black"/>
<path d="M391.274 980.711L423.81 925.519L268.346 1213L404.324 968.138L469.005 850.627L514.562 764.004L441.701 894.238L434.124 904.164L282.569 1170.47L213.318 1286.18L497.903 781.719L237.975 1228.61L304.581 1116.75L234.487 1244.46L73.2803 1535.22L251.717 1225.66L391.274 980.711Z" fill="black"/>
<path d="M575.304 836.821L550.015 955.867L438.875 1509.5L484.281 1298.36L575.304 836.821Z" fill="black"/>
<path d="M89.6686 1251.2L184.54 1132.09L330.261 942.784L339.913 927.655L421.524 818.174L255.536 1029.2L37.0756 1303.26L419.329 813.422L259.024 1011.66L394.521 839.258L301.634 950.785L280.886 975.237L251.236 1011.96L222.609 1050.85L39.6015 1282.6L306.926 952.709L-49.4666 1406.27L22.2209 1321.4L115.77 1207.22L-97.5791 1487.9L89.6686 1251.2Z" fill="black"/>
<path d="M487.799 1394.36L559.607 984.862L565.711 947.687L479.5 1425.01L511.164 1227.98L573.048 878.148L543.73 1029.65L486.747 1348.32L440.108 1623.25L452.226 1577.53L487.799 1394.36Z" fill="black"/>
<path d="M534.408 862.598L387.184 1339.68L495.978 995.9L529.477 891.321L442.213 1187.4L474.177 1087.88L399.663 1350.84L386.673 1402.24L460.886 1136.51L496.309 1008.26L534.769 874.087L492.941 1004.5L559.336 785.329L561.652 774.291L552.901 797.871L458.39 1082.37L417.435 1202.38L356.963 1393.1L312.429 1541.44L457.067 1100.84L534.408 862.598Z" fill="black"/>
<path d="M532.905 950.905L444.107 1292.58L394.07 1497.35L495.979 1102.46L469.276 1213.84L532.905 950.905Z" fill="black"/>
<path d="M-128.973 711.339L-214.132 733.777L-406.762 781.961L-144.158 722.949L256.348 626.582L-13.3824 686.165L350.137 602.189L171.009 639.936L69.5815 659.456L192.81 631.123L182.255 631.244L-200.48 705.565L-140.038 693.203L-230.49 711.43L-142.504 696.812L-207.636 713.204L-78.3041 689.142L-178.047 713.204L-533.087 793.721L152.305 646.012L-128.973 711.339Z" fill="black"/>
<path d="M-212.357 836.189L12.9594 759.522L27.1827 755.372L259.536 670.765L122.054 716.662L-171.071 814.534L-171.883 814.774L-496.01 926.722L82.7526 730.257L-212.357 836.189Z" fill="black"/>
<path d="M-368.001 1091.37L-258.124 1034.97L-249.915 1034.58L-88.6481 947.536L10.8244 891.592L-71.0269 934.332L-73.2821 931.504L-169.146 980.109L-17.5319 893.066L-51.7218 907.713L65.7328 841.273L304.461 712.301L11.6364 863.349L-335.916 1046.61L-391.426 1080.42L-327.677 1051.15L-163.373 967.296L-51.7218 910.45L-350.56 1077.11L-368.001 1091.37Z" fill="black"/>
<path d="M103.892 754.259L-219.604 882.779L324.427 661.892L17.2595 780.998L132.068 733.325L107.621 742.409L-67.7492 811.286L18.1315 780.487L-402.101 949.792L-405.739 955.596L-196.931 875.35L103.892 754.259Z" fill="black"/>
<path d="M-219.153 757.778L237.464 642.221L-55.3604 721.084L195.877 656.117L337.568 617.467L310.354 623.152L344.785 612.836L-37.619 707.399L91.2623 672.509L16.3872 689.653L-169.988 735.912L-511.827 824.008L-377.533 794.502L-219.153 757.778Z" fill="black"/>
<path d="M-222.581 577.886L-462.271 592.865L-99.293 575.931L96.645 563.991L325.6 551.659L173.475 556.201L-207.065 567.871L-225.318 568.683L-555.068 584.654L-227.092 574.969L-222.581 577.886Z" fill="black"/>
<path d="M-63.1488 401.422L-3.00824 412.13L97.2762 429.244L3.57721 409.062L-539.853 302.198L-536.245 307.311L-63.1488 401.422Z" fill="black"/>
<path d="M-399.936 623.423L-399.184 627.093L-321.543 623.935L-459.686 640.206L187.968 581.826L-513.511 653.531L-508.911 657.23L-287.954 635.424L63.4473 596.053L320.518 568.833L175.609 580.683L51.5695 589.436L-200.239 607.693L286.298 565.855L182.616 571.961L145.208 573.916L-560 627.875L83.1734 581.856L-399.936 623.423Z" fill="black"/>
<path d="M-39.6938 579.721L-31.4846 578.939L183.668 563.84L75.6258 568.863L-158.441 583.511L-174.98 587.391L-39.6938 579.721Z" fill="black"/>
<path d="M71.1451 577.736L69.0703 577.856L-56.9543 584.503L-394.253 608.054L71.1451 577.736Z" fill="black"/>
<path d="M-9.53363 558.637L91.5928 554.576L226.308 548.681L207.243 547.268L203.003 545.433L-170.019 548.32L347.792 540.32L-91.9563 541.312L-46.0389 542.636L-249.043 547.238L-388.359 552.411L-46.7305 550.035L109.274 549.193L-549.626 567.419L-250.998 563.209L-9.53363 558.637Z" fill="black"/>
<path d="M325.239 872.132L-75.6278 1306.09L-6.52625 1236.61L157.357 1062.46L168.784 1053.71L-119.44 1377.13L264.918 953.822L285.847 930.993L353.144 854.717L196.178 1025.5L320.157 885.306L130.534 1088.3L214.22 993.344L325.239 872.132Z" fill="black"/>
<path d="M383.094 808.999L89.1572 1118.04L-179.641 1405.64L358.226 836.159L383.094 808.999Z" fill="black"/>
<path d="M472.884 731.25L466.99 736.394L460.495 742.108L113.153 1138.2L117.995 1132.36L-80.7698 1363.56L352.182 868.132L160.875 1093.74L-137.873 1448.86L367.638 856.733L472.884 731.25Z" fill="black"/>
<path d="M370.314 735.16L216.114 848.01L156.154 892.735L-287.383 1226.02L20.9579 998.637L370.314 735.16Z" fill="black"/>
<path d="M60.2297 1064.81L-87.2952 1204.49L-124.883 1244.19L-40.6862 1170.62L59.0269 1081.38L220.324 932.407L-52.143 1195.34L-42.4904 1190.83L-15.3069 1169.21L12.5683 1142.41L261.039 899.051L117.604 1032.53L312.128 844.431L332.576 822.625L364.15 790.773L12.9291 1111.7L119.047 1009.89L352.513 794.653L96.1035 1022.16L439.626 712.752L68.0179 1038.4L336.606 799.555L132.669 974.545L0.660431 1090.55L-8.87184 1102.94L-184.813 1262.23L139.766 979.117L-65.5844 1166.11L-24.5685 1133.68L-211.967 1308.13L60.2297 1064.81Z" fill="black"/>
<path d="M43.9317 1014.43L342.199 772.606L304.731 800.127L-67.8696 1089.95L115.379 942.543L424.291 700.992L187.577 880.824L-230.851 1203.49L0.269653 1029.65L-192.03 1183.16L-76.4697 1097.23L118.115 947.506L148.937 925.97L-213.199 1219.52L43.9317 1014.43Z" fill="black"/>
<path d="M313.782 810.504L154.921 947.385L223.902 891.201L390.913 746.469L313.782 810.504Z" fill="black"/>
<path d="M300.822 1039.27L478.989 772.245L432.62 839.769L84.3162 1357.19L300.822 1039.27Z" fill="black"/>
<path d="M230.728 879.381L-9.2626 1076.96L-166.229 1210.77L230.728 879.381Z" fill="black"/>
<path d="M148.937 1129.29L121.513 1161.02L378.584 847.679L261.971 984.741L182.977 1079.64L-99.4136 1422.79L64.5597 1230.89L148.937 1129.29Z" fill="black"/>
<path d="M1155.33 1196.24L1117.8 1151.7L872.729 841.814L1022.12 1038.67L1027.77 1046.52L1283.91 1375.11L1234.62 1305.64L1273.72 1349.82L1155.33 1196.24Z" fill="black"/>
<path d="M1081.78 1121.44L829.428 792.969L833.878 801.27L892.515 882.719L1104.45 1173.06L1131.54 1207.4L981.854 1001.46L1123.12 1186.23L1112.63 1167.52L1334.52 1454.07L1060.97 1092.6L1081.78 1121.44Z" fill="black"/>
<path d="M953.077 920.316L798.215 734.859L885.689 843.077L1098.77 1101.41L1151.54 1161.2L1362.39 1410.09L1146.4 1149.62L953.077 920.316Z" fill="black"/>
<path d="M1092.84 1358.72L888.786 990.065L816.257 861.725L820.707 873.245L791.329 822.655L854.145 940.227L835.893 905.969L1203.23 1574.71L1000.92 1199.01L1092.84 1358.72Z" fill="black"/>
<path d="M1222.18 1548.12L891.342 975.989L862.625 928.918L931.366 1052.99L984.53 1150.92L1232.94 1583.97L916.391 1024.83L1222.18 1548.12Z" fill="black"/>
<path d="M585.949 949.791L562.374 1158.26L604.141 799.586L561.502 1125.83L541.294 1259.44L553.894 1143.1L578.04 951.897L586.279 882.298L588.024 860.312L577.98 916.105L558.705 1026.91L523.583 1231.74L522.801 1237L448.227 1724.22L492.821 1464.23L538.287 1185.57L524.455 1295.65L509.029 1422.52L555.427 1114.13L473.967 1727.47L494.776 1603.22L533.506 1333.28L501.301 1613.42L585.949 949.791Z" fill="black"/>
<path d="M1450.62 963.416L1291.88 879.771L1357.64 916.977L1024.4 743.491L882.291 669.14L998.663 733.866L1015.77 743.521L1309.83 902.059L1295.31 891.11L1697.23 1102.43L1443.43 963.356L1450.62 963.416Z" fill="black"/>
<path d="M1705.74 896.255L1399.05 790.353L1268.51 745.989L1058.83 678.164L934.614 638.282L1002.51 663.005L1270.02 757.779L1258.17 753.899L1352.86 786.533L1772.19 927.685L1729.76 908.707L1705.74 896.255Z" fill="black"/>
<path d="M1274.53 689.232L1339.48 707.88L1344.17 709.504L1528.2 753.237L1802.83 815.046L1370.48 710.286L1274.53 689.232Z" fill="black"/>
<path d="M898.048 550.636L1270.38 570.667L1267.76 569.615L1839.4 593.646L1185.22 562.486L898.048 550.636Z" fill="black"/>
<path d="M1725.55 1001.8L1070.17 720.302L1049.15 710.828L919.428 657.14L1495.03 905.729L1137.38 754.801L1193.79 782.231L1355.84 857.274L992.619 697.474L1322.61 849.063L1375.11 871.26L1712.41 1019.27L1648.06 986.035L1191.53 781.028L1147.63 759.523L1475.7 898.751L1725.55 1001.8Z" fill="black"/>
<path d="M1135.39 1070.37L1258.26 1207.49L1232.28 1180.39L1299.31 1252.28L1311.36 1260.07L1454.11 1406.67L1064.73 991.268L1135.39 1070.37Z" fill="black"/>
<path d="M1569.31 741.957L1377.97 697.383L1394.81 698.135L1457.02 708.18L1489.29 711.669L1249.06 661.892L1227.62 659.034L994.844 613.106L1054.92 627.573L1029.73 623.994L961.015 610.49L1056.46 633.679L1312.21 694.164L1318.1 694.826L1806.29 802.533L1781.54 792.607L1569.31 741.957Z" fill="black"/>
<path d="M1110.55 973.462L859.107 743.762L884.246 769.177L1147.48 1019.24L1482.92 1333.97L1056.13 929.279L1486.13 1325.61L1501.44 1334.06L1127.76 988.561L1110.55 973.462Z" fill="black"/>
<path d="M1037.21 947.024L1052.58 963.567L1471.19 1387.45L1259.28 1168.9L1037.21 947.024Z" fill="black"/>
<path d="M1066.32 856.101L1221.39 975.327L943.093 768.757L948.175 773.96L1353.22 1079.24L1524.8 1204.16L1525.43 1199.64L1585.91 1239.5L1088.42 869.696L1066.32 856.101Z" fill="black"/>
<path d="M1339.99 931.745L1233.75 874.959L1256.03 887.411L1597.39 1076.12L1210.84 858.297L1339.99 931.745Z" fill="black"/>
<path d="M762.16 853.725L949.889 1318.84L963.781 1345.1L958.639 1324.25L1015.53 1453.86L985.973 1381.31L997.641 1410.97L943.755 1289.91L803.838 952.258L731.819 776.486L784.382 913.428L745.261 817.392L804.86 974.275L1054.59 1613.63L1040.88 1567.28L762.16 853.725Z" fill="black"/>
<path d="M818.121 901.908L886.682 1044.9L1007.86 1297.76L1019.05 1315.74L1138.28 1548.93L819.775 904.766L818.121 901.908Z" fill="black"/>
<path d="M650.991 1100.72L644.646 878.147L642.33 830.896L641.849 896.434L641.067 992.17L638.451 854.958L637.669 1082.88L640.616 1536.24L643.052 1375.66L644.255 1205.09L651.141 1522.19L657.516 1682.38L654.148 1330.54L650.991 1100.72Z" fill="black"/>
<path d="M633.49 1346.99L632.798 1017.37L632.467 876.854L628.618 1051.36L627.626 1188.94L628.137 1362.21L629.46 1598.44L633.76 1340.04L633.49 1346.99Z" fill="black"/>
<path d="M628.348 927.203L626.694 983.177L625.341 1075.66L627.415 1016.41L628.348 927.203Z" fill="black"/>
<path d="M683.466 1533.44L676.791 1326.9L660.102 973.974L649.397 786.803L651.562 862.447L663.53 1206.14L669.213 1440.59L672.761 1533.68L684.218 1736.4L661.936 1110.8L683.466 1533.44Z" fill="black"/>
<path d="M575.063 1320.43L590.399 1093.08L599.239 963.206L593.436 1021.86L564.418 1377.97L563.335 1428.44L561.17 1497.05L573.8 1343.35L575.063 1320.43Z" fill="black"/>
<path d="M701.749 1318.66L728.361 1597.02L705.568 1297.91L697.479 1202.29L683.888 1067.18L696.788 1251.68L658.869 807.947L693.751 1295.83L658.117 831.618L666.717 983.929L654.058 808.037L661.124 955.055L661.425 972.259L702.441 1678.56L679.648 1232.55L684.038 1262.17L697.93 1429.28L713.898 1608.81L695.134 1305.61L696.968 1293.36L701.749 1318.66Z" fill="black"/>
<path d="M615.899 1265L616.41 1207.82L622.604 943.776L614.876 1095.58L596.924 1460.38L591.752 1591.04L605.434 1336.4L612.32 1223.04L599.3 1709.99L615.899 1265Z" fill="black"/>
<path d="M584.776 1382.69L611.388 921.85L599.871 1063.15L598.398 1081.77L600.533 1067.78L572.898 1530.46L584.776 1382.69Z" fill="black"/>
<path d="M598.337 899.683L602.848 843.649L570.402 1116.87L562.704 1178.44L563.245 1174.65L546.797 1344.28L511.494 1701.33L544.662 1421.67L584.866 1047.09L598.337 899.683Z" fill="black"/>
<path d="M773.347 935.745L819.264 1077.53L817.49 1072.51L905.265 1328.49L862.505 1194.59L803.477 1016.98L797.222 995.78L753.139 871.891L773.347 935.745Z" fill="black"/>
<path d="M754.252 936.136L860.129 1307.35L949.318 1608.45L768.535 982.696L754.252 936.136Z" fill="black"/>
<path d="M736.24 864.101L826.872 1173.15L801.101 1089.02L922.736 1491.63L898.619 1399.72L796.891 1057.44L825.518 1142.83L913.053 1413.13L891.493 1338.96L804.529 1072.39L741.051 874.658L736.24 864.101Z" fill="black"/>
<path d="M737.834 1358.9L735.338 1337.55L726.617 1289.42L669.604 817.361L724.513 1331.2L694.562 1079.18L709.026 1235.95L736.601 1491.24L728.392 1382.18L752.418 1571.58L707.884 1149.05L774.369 1693.93L737.834 1358.9Z" fill="black"/>
<path d="M781.375 1536.57L779.481 1498.79L723.49 1104.3L730.587 1145.81L695.104 920.887L719.31 1099.67L721.986 1136.81L692.578 940.197L701.96 1014.22L795.448 1693.63L727.098 1174.77L781.375 1536.57Z" fill="black"/>
<path d="M747.727 1147.82L689.029 827.829L709.688 955.446L785.585 1419.63L705.688 954.153L690.774 871.952L743.697 1222.29L744.84 1229.03L780.203 1436.26L714.89 1012.65L789.043 1449.71L808.619 1545.35L722.588 1026.7L825.278 1597.36L747.727 1147.82Z" fill="black"/>
<path d="M917.323 1645.81L895.973 1545.95L887.163 1497.23L899.01 1528.09L811.656 1187.73L829.127 1242.8L881.6 1423.27L889.869 1440.56L756.778 958.755L802.304 1112.12L727.549 855.349L771.121 1016.8L816.618 1190.89L741.502 923.745L829.187 1261.63L790.216 1124.87L873.511 1461.74L755.906 1009.92L708.124 824.671L750.583 1006.19L857.724 1468.05L850.116 1453.92L721.385 906.33L794.185 1240.85L785.766 1217.18L832.615 1451.3L703.614 853.515L713.236 902.39L825.548 1429.49L867.015 1607.43L802.154 1291.5L830.781 1407.75L850.116 1478.82L838.99 1414.79L909.024 1700.73L887.824 1592.72L848.161 1411.39L741.382 961.552L920.3 1674.8L917.323 1645.81Z" fill="black"/>
<path d="M842.719 1102.73L966.157 1433.22L910.978 1274.96L909.986 1272.13L762.822 880.343L842.719 1102.73Z" fill="black"/>
<path d="M92.3145 946.212L43.1797 986.305L209.889 861.184L277.217 809.24L92.3145 946.212Z" fill="black"/>
<path d="M243.117 357.811L377.261 418.326L-4.93262 238.645L13.8012 245.232L6.37384 241.773L-232.414 133.314L-35.2735 228.057L243.117 357.811Z" fill="black"/>
<path d="M-133.212 254.315L99.5617 341.058L162.078 363.134L246.876 393.061L-133.212 254.315Z" fill="black"/>
<path d="M187.818 336.817L-175.582 177.437L125.452 311.852L297.454 386.895L187.818 336.817Z" fill="black"/>
<path d="M27.4532 206.913L15.2446 201.018L98.6897 248.811L75.3551 238.344L367.398 393.121L27.4532 206.913Z" fill="black"/>
<path d="M290.057 489.67L-54.0674 440.283L-433.615 390.776L202.973 478.571L290.057 489.67Z" fill="black"/>
<path d="M-159.795 95.5669L374.705 391.046L235.389 310.499L130.173 249.593L-131.889 103.116L122.746 249.743L-225.047 58.5117L-293.126 24.9756L-193.112 80.9494L-159.795 95.5669Z" fill="black"/>
<path d="M-91.5052 115.538L-281.489 9.66582L-54.8495 141.254L243.959 310.769L186.946 275.128L109.815 228.869L-317.664 -20.3813L-91.5052 115.538Z" fill="black"/>
<path d="M134.202 289.957L75.9563 259.338L38.2482 240.84L-140.61 155.451L96.4944 272.813L134.202 289.957Z" fill="black"/>
<path d="M-94.0911 188.085L31.9936 248.901L294.958 373.03L234.848 343.223L126.144 291.31L-94.0911 188.085Z" fill="black"/>
<path d="M21.5894 211.034L-124.973 135.51L156.425 286.467L331.313 377.15L21.5894 211.034Z" fill="black"/>
<path d="M-50.6997 319.763L-306.868 239.787L-106.991 305.777L126.775 380.579L-323.167 246.013L67.8374 365.721L162.348 393.392L385.56 459.953L-176.844 282.587L-50.6997 319.763Z" fill="black"/>
<path d="M63.5377 332.606L-6.88696 305.657L-80.0179 279.73L-110.75 271.699L10.1027 315.191L63.5377 332.606Z" fill="black"/>
<path d="M324.878 464.675L195.997 432.884L-205.321 340.336L126.475 419.74L255.446 450.359L262.904 452.013L324.878 464.675Z" fill="black"/>
<path d="M-162.02 392.43L-208.779 387.136L-297.366 374.925L51.1484 437.455L-300.012 381.391L-38.3708 426.026L280.224 477.097L98.028 444.102L314.113 479.864L35.121 427.8L210.31 457.637L162.92 448.403L-519.856 323.462L-162.02 392.43Z" fill="black"/>
<path d="M-112.253 422.086L-211.636 408.581L-259.478 404.641L39.391 449.787L239.87 477.488L-112.253 422.086Z" fill="black"/>
<path d="M36.8953 440.613L-56.082 426.958L-47.8428 430.146L154.139 460.314L36.8953 440.613Z" fill="black"/>
<path d="M-229.558 440.764L-77.6425 460.194L6.34377 469.758L117.484 480.135L116.912 477.759L-23.9069 459.231L-197.262 441.305L-229.558 440.764Z" fill="black"/>
<path d="M-57.5858 313.206L155.823 379.797L-28.3876 317.357L-255.328 245.412L-380.06 208.628L-47.4521 317.086L-57.5858 313.206Z" fill="black"/>
<path d="M256.498 522.423L281.818 521.852L116.521 513.37L-135.738 504.317L-219.965 503.805L-189.715 507.956L248.289 524.438L329.359 526.664L256.498 522.423Z" fill="black"/>
<path d="M177.263 513.22L291.771 517.672L-32.3267 496.648L-78.9356 496.377L39.9022 505.28L-292.765 490.963L-69.1327 502.994L177.263 513.22Z" fill="black"/>
<path d="M117.273 471.593L124.189 472.646L225.346 484.556L42.1874 459.412L-221.92 425.936L117.273 471.593Z" fill="black"/>
<path d="M151.313 340.576L258.664 383.376L187.698 353.028L-283.143 160.985L151.313 340.576Z" fill="black"/>
<path d="M324.307 762.952L284.674 790.894L239.599 824.4L-222.371 1163.28L242.727 825.392L309.573 775.795L324.307 762.952Z" fill="black"/>
<path d="M187.186 797.36L189.863 795.766L419.449 661.652L274.541 743.342L320.729 717.385L-245.044 1044.42L187.186 797.36Z" fill="black"/>
<path d="M-110.93 1028.74L302.927 754.62L28.5656 929.52L23.7543 928.828L130.744 859.53L-333.18 1157.14L-268.679 1120.51L128.188 867.35L-328.79 1169.12L-110.93 1028.74Z" fill="black"/>
<path d="M382.253 668.478L-231.031 979.838L174.467 770.5L408.414 651.214L394.521 656.839L146.502 776.546L219.603 738.619L134.474 776.967L105.335 789.93L-304.553 987.809L-369.625 1023.42L135.315 781.719L97.9983 802.292L-177.295 941.4L-266.514 989.734L-95.053 907.142L-301.967 1015.99L152.035 786.622L215.513 755.853L182.766 773.117L382.253 668.478Z" fill="black"/>
<path d="M-375.88 973.583L-186.347 895.442L-342.953 967.778L267.805 700.752L378.975 650.793L299.8 683.818L-52.4737 833.212L-103.533 851.95L-295.201 934.843L-375.88 973.583Z" fill="black"/>
<path d="M2.28418 775.524L51.6295 757.688L-378.466 923.594L-7.60898 783.434L172.632 712.933L2.28418 775.524Z" fill="black"/>
<path d="M479.951 779.855L204.657 1196.09L232.202 1157.23L388.687 921.248L282.148 1088.27L479.951 779.855Z" fill="black"/>
<path d="M-9.022 1180.84L210.581 958.514L385.019 784.156L313.993 852.702L-72.4703 1234.5L97.9681 1070.91L-137.061 1308.91L37.4967 1139.31L266.151 912.555L264.437 914.45L441.07 734.498L-9.022 1180.84Z" fill="black"/>
<path d="M353.535 832.671L265.52 921.91L-47.8127 1250.02L110.207 1089.65L221.376 975.929L323.194 867.109L353.535 832.671Z" fill="black"/>
<path d="M-126.717 754.68L-16.209 724.873L48.1715 705.293L-3.81996 717.023L-59.3297 731.4L-241.556 783.855L-126.717 754.68Z" fill="black"/>
<path d="M-88.6483 620.987L351.19 569.705L-275.144 634.161L-15.8783 608.565L-342.863 647.154L-88.6483 620.987Z" fill="black"/>
<path d="M173.865 628.356L-71.6285 673.351L-140.971 684.69L-184.543 693.082L-494.567 755.613L173.865 628.356Z" fill="black"/>
<path d="M-109.577 663.937L-475.502 727.129L90.1797 633.288L-288.165 702.255L-427.781 730.889L96.5546 637.499L220.264 613.979L107.139 632.085L393.348 580.412L-109.577 663.937Z" fill="black"/>
<path d="M-64.1111 343.765L-50.1284 347.675L103.501 388.279L23.4536 362.984L352.513 455.171L164.543 398.566L-27.0645 340.276L-342.201 247.939L-341.119 252.09L-348.125 253.894L-47.9934 342.893L-343.103 262.977L-64.1111 343.765Z" fill="black"/>
<path d="M34.1286 753.326L51.0582 748.364L-280.557 871.35L-229.317 856.221L-172.063 838.475L-168.335 837.122L213.378 693.322L402.76 622.58L34.1286 753.326Z" fill="black"/>
<path d="M-163.193 270.888L165.566 378.384L207.213 390.355L-219.274 239.968L-205.141 244.6L-348.245 195.213L-414.971 176.265L-406.281 183.453L-468.646 166.73L-163.193 270.888Z" fill="black"/>
<path d="M83.8952 719.099L313.091 642.402L199.275 677.983L182.706 684.69L-69.2227 768.907L-443.387 895.652L-104.615 786.412L9.23071 748.725L271.564 659.365L83.8952 719.099Z" fill="black"/>
<path d="M280.435 404.912L282.179 405.513L192.75 369.962L179.789 364.879L-199.818 222.944L280.435 404.912Z" fill="black"/>
<path d="M40.4434 717.835L10.1626 728.092L124.339 693.894L97.8476 701.473L40.4434 717.835Z" fill="black"/>
<path d="M-81.8523 762.169L113.274 700.271L-165.628 787.735L-81.8523 762.169Z" fill="black"/>
<path d="M189.562 -71.5727L390.191 198.13L316.038 94.153L193.802 -71.7532L-3.03809 -335.38L261.52 28.9155L288.313 68.6475L120.882 -152.3L467.802 308.905L189.562 -71.5727Z" fill="black"/>
<path d="M255.747 72.8882L282.63 107.988L403.663 256.089L466.54 331.041L255.747 72.8882Z" fill="black"/>
<path d="M122.265 -208.694L189.893 -105.83L217.497 -61.5866L165.205 -131.035L216.174 -57.7066L231.811 -40.3219L276.194 18.0581L248.53 -26.9676L227.932 -61.4061L126.685 -208.033L122.265 -208.694Z" fill="black"/>
<path d="M391.604 221.019L177.263 -59.5413L162.649 -76.6854L-90.0916 -396.557L295.891 100.59L391.604 221.019Z" fill="black"/>
<path d="M410.037 201.048L299.8 35.2017L-12.8411 -426.304L357.354 124.772L410.037 201.048Z" fill="black"/>
<path d="M43.4503 101.523L21.6794 86.2733L366.676 341.268L385.079 354.472L43.4503 101.523Z" fill="black"/>
<path d="M126.565 -45.9464L43.0596 -136.449L49.254 -125.08L250.364 97.9733L377.08 239.306L293.575 141.585L268.406 113.042L126.565 -45.9464Z" fill="black"/>
<path d="M313.061 112.23L463.833 307.822L110.237 -166.346L10.3132 -298.175L411.421 238.434L185.292 -56.1127L197.441 -35.9308L196.809 -36.6527L313.061 112.23Z" fill="black"/>
<path d="M71.7766 -157.383L159.01 -48.4729L223.722 28.4347L300.852 119.599L294.838 111.628L79.4144 -153.021L71.7766 -157.383Z" fill="black"/>
<path d="M-37.9196 50.2409L345.958 326.35L-93.6699 9.54639L-37.9196 50.2409Z" fill="black"/>
<path d="M17.53 -196.694L177.263 -4.62041L271.654 103.237L206.582 22.78L70.4237 -138.945L17.53 -196.694Z" fill="black"/>
<path d="M244.17 106.485L319.496 186.009L279.081 137.765L53.3436 -119.636L90.4804 -73.7381L111.409 -46.097L166.348 18.6292L-130.115 -302.025L113.364 -33.4044L244.17 106.485Z" fill="black"/>
<path d="M-217.74 25.6675L-216.597 30.54L-13.0514 152.233L57.5236 192.536L414.217 404.07L53.0731 182.881L128.429 225.892L-341.78 -58.3384L273.518 318.65L-217.74 25.6675Z" fill="black"/>
<path d="M279.623 242.164L365.143 310.95L158.469 134.667L92.4952 74.964L62.6053 47.6539L-234.068 -203.491L-110.148 -93.3784L-100.767 -80.8964L154.56 136.292L-115.621 -84.235L362.196 312.604L-187.128 -133.471L-251.419 -180.572L-41.468 -6.66568L168.483 163.06L272.526 244.329L-2.73741 17.727L389.981 335.403L279.623 242.164Z" fill="black"/>
<path d="M-109.246 223.426L-265.311 155.331L92.3748 304.183L104.283 308.394L89.9391 302.288L-441.222 77.9719L-376.03 110.094L-109.246 223.426Z" fill="black"/>
<path d="M-3.82001 288.784L108.643 334.682L133.691 344.457L336.365 421.214L307.588 408.371L19.4845 292.002L-108.344 238.164L-302.057 161.136L-477.758 95.2968L-233.587 195.845L-3.82001 288.784Z" fill="black"/>
<path d="M258.724 243.306L197.049 197.739L236.742 229.321L419.299 368.909L175.85 176.324L409.105 357.72L290.267 262.075L-301.335 -204.394L-209.05 -126.403L258.724 243.306Z" fill="black"/>
<path d="M263.896 167.482L178.466 80.8592L107.921 8.43315L-54.2781 -151.548L263.896 167.482Z" fill="black"/>
<path d="M121.032 -3.32681L164.092 44.5262L414.668 304.093L47.57 -86.7912L195.005 65.2193L189.081 54.8126L-49.7976 -198.077L-164.245 -314.476L-113.697 -255.013L121.032 -3.32681Z" fill="black"/>
<path d="M245.613 501.129L-145.541 462.329L-213.5 457.998L-390.584 445.305L-199.427 464.044L245.613 501.129Z" fill="black"/>
<path d="M-103.894 -125.471L-253.885 -254.051L-132.461 -141.171L191.336 147.51L-35.5442 -47.0597L51.1485 32.0435L179.458 144.382L351.43 290.798L399.392 330.47L78.8733 46.21L323.826 259.578L324.999 258.134L190.133 133.645L-59.5102 -97.8L51.0883 -1.61293L69.4913 12.9745L-195.518 -229.328L-180.904 -210.439L59.7185 13.546L4.56958 -32.4421L-103.894 -125.471Z" fill="black"/>
<path d="M50.4267 -11.6282L-171.071 -217.567L74.8438 14.2683L50.4267 -11.6282Z" fill="black"/>
<path d="M-62.7578 -140.239L186.074 101.702L268.647 180.294L293.485 201.439L330.231 234.764L322.833 227.245L293.635 200.236L-62.7278 -145.112L-62.7578 -140.239Z" fill="black"/>
<path d="M-107.863 880.584L-110.058 881.606L178.165 750.74L135.887 772.606L141.179 770.35L293.756 697.323L-107.863 880.584Z" fill="black"/>
<path d="M-32.2064 615.242L-189.384 636.176L-181.114 638.191L-172.244 637.319L144.036 596.745L-32.2064 615.242Z" fill="black"/>
<path d="M-180.243 661.41L-266.665 675.066L38.0377 630.19L-180.243 661.41Z" fill="black"/>
<path d="M-58.6081 651.335L-31.7253 647.274L84.9775 626.01L87.1125 624.355L-353.267 695.458L-58.6081 651.335Z" fill="black"/>
<path d="M-137.903 634.01L-77.2216 628.145L-158.021 641.168L-37.0177 626.16L199.215 594.128L-137.903 634.01Z" fill="black"/>
<path d="M-90.1217 641.44L-307.44 674.284L38.4588 626.822L35.8427 627.213L224.955 598.249L-90.1217 641.44Z" fill="black"/>
<path d="M129.993 494.181L-192.481 464.735L-94.5421 474.33L129.993 494.181Z" fill="black"/>
<path d="M172.542 502.693L160.965 499.715L163.1 499.836L64.6802 494.151L-353.868 466.48L-35.0028 489.669L172.542 502.693Z" fill="black"/>
<path d="M-27.8159 520.228L-190.436 516.889L274.33 529.702L283.953 530.274L345.116 531.116L-27.8159 520.228Z" fill="black"/>
<path d="M-29.6505 366.804L324.217 455.803L152.696 408.882L21.7997 372.037L-11.3678 363.315L93.0062 393.392L48.7427 383.978L-212.388 319.222L-218.342 320.966L299.98 453.005L352.844 465.908L-29.6505 366.804Z" fill="black"/>
<path d="M-62.2767 535.628L-13.3223 534.846L184.42 533.673L107.711 532.049L-348.756 530.635L-256.441 534.485L-62.2767 535.628Z" fill="black"/>
<path d="M224.684 254.255L-188.632 -28.1406L8.80943 110.666L183.698 230.494L293.575 303.582L224.684 254.255Z" fill="black"/>
<path d="M-39.303 116.862L92.7657 197.108L-108.856 66.1214L232.292 279.64L-4.24103 125.253L-208.298 -2.30437L-294.66 -52.8643L-134.055 52.9777L-245.946 -13.072L-39.303 116.862Z" fill="black"/>
<path d="M-70.4557 7.71132L281.577 269.263L413.465 367.526L286.749 269.083L291.59 272.933L238.456 234.344L-131.378 -43.42L-170.079 -68.1436L-13.3824 53.2784L108.041 146.789L58.5759 112.109L430.605 384.91L-70.4557 7.71132Z" fill="black"/>
<path d="M-59.3899 52.2261L-83.7468 31.5931L222.729 244.33L48.7729 117.855L-179.731 -43.8708L117.153 170.61L-276.648 -103.123L-59.3899 52.2261Z" fill="black"/>
<path d="M279.803 762.892L293.485 752.274L264.648 769.99L-104.615 1003.54L279.803 762.892Z" fill="black"/>
<path d="M410.188 673.652L280.645 750.139L246.305 771.133L335.433 719.189L-25.5908 940.648L277.638 756.846L425.554 665.652L410.188 673.652Z" fill="black"/>
<path d="M-84.5586 62.1213L-31.9957 100.259L31.8134 142.698L24.0252 134.968L-19.7271 102.064L213.137 254.766L-128.792 28.946L-84.5586 62.1213Z" fill="black"/>
<path d="M-195.939 1024.17L141.179 828.521L33.2567 889.938L101.186 849.093L-195.939 1024.17Z" fill="black"/>
<path d="M363.428 722.167L325.57 745.777L356.272 723.4L-87.2952 1013.53L-8.45087 962.725L282.449 772.637L-35.3638 987.448L319.466 751.312L57.9443 930.963L260.738 794.112L264.978 791.164L363.428 722.167Z" fill="black"/>
<path d="M-40.7763 1018.31L-56.4429 1031L79.4147 934.813L-40.7763 1018.31Z" fill="black"/>
<path d="M-19.7272 1001.31L-29.7406 1009.4L232.743 821.061L56.4709 942.092L-112.975 1063.21L-19.7272 1001.31Z" fill="black"/>
</g>
<defs>
<clipPath id="clip0_165_101">
<rect width="1917" height="995" fill="white"/>
</clipPath>
</defs>
</svg>
